Coordinates
version=1
nRows=7
nColumns=63
inDegrees=yes

Units are S.I. units (second, meters, Newtons, ...)
If the header above contains a line with 'inDegrees', this indicates whether rotational values are in degrees (yes) or radians (no).

endheader
time	pelvis_tilt	pelvis_list	pelvis_rotation	pelvis_tx	pelvis_ty	pelvis_tz	hip_flexion_r	hip_adduction_r	hip_rotation_r	knee_angle_r	knee_angle_r_beta	ankle_angle_r	subtalar_angle_r	mtp_angle_r	hip_flexion_l	hip_adduction_l	hip_rotation_l	knee_angle_l	knee_angle_l_beta	ankle_angle_l	subtalar_angle_l	mtp_angle_l	L5_S1_Flex_Ext	L5_S1_Lat_Bending	L5_S1_axial_rotation	L4_L5_Flex_Ext	L4_L5_Lat_Bending	L4_L5_axial_rotation	L3_L4_Flex_Ext	L3_L4_Lat_Bending	L3_L4_axial_rotation	L2_L3_Flex_Ext	L2_L3_Lat_Bending	L2_L3_axial_rotation	L1_L2_Flex_Ext	L1_L2_Lat_Bending	L1_L2_axial_rotation	L1_T12_Flex_Ext	L1_T12_Lat_Bending	L1_T12_axial_rotation	Abs_r3	Abs_r2	Abs_r1	Abs_t1	Abs_t2	neck_flexion	neck_bending	neck_rotation	arm_flex_r	arm_add_r	arm_rot_r	elbow_flex_r	pro_sup_r	wrist_flex_r	wrist_dev_r	arm_flex_l	arm_add_l	arm_rot_l	elbow_flex_l	pro_sup_l	wrist_flex_l	wrist_dev_l
      8.64406780	      6.18127720	     -1.70955283	     92.85349010	      0.12859867	      0.95927812	      0.43424585	     -1.38667685	      8.04695097	     -8.43374893	      0.74669721	      0.01303232	     21.57358977	      4.92341208	      0.00000000	     -0.67949083	     -8.58106669	     -4.35150190	      8.39935978	      0.14659648	     30.34011888	     -8.92481797	      0.00000000	     -0.05599180	     -0.17796730	     -0.60338053	     -0.10398237	     -0.23669651	     -0.64109181	     -0.09198893	     -0.43270969	     -0.64109181	     -0.06399303	     -0.43270969	     -0.52795796	     -0.05199398	     -0.36291092	     -0.49024668	     -0.03199371	     -0.27567135	     -0.45253540	     -0.39994382	     -2.01320168	     -3.35582149	      0.00000000	      0.00000000	     22.52480775	     -6.21387190	      0.85967713	     -2.37564688	    -13.75791059	     38.40929812	     28.28034597	     73.87921755	      0.59512503	     -7.21964809	     14.96074109	     -9.34176564	    186.43505170	      3.24350356	     17.85458979	    -13.04225551	     -9.94856449
      8.66101695	      6.09908509	     -1.64611541	     92.48071020	      0.12904469	      0.95931516	      0.43363973	     -1.51913243	      7.96321092	     -7.25522191	      0.72896100	      0.01272277	     21.45669329	      3.88786712	      0.00000000	     -0.96185795	     -8.36489022	     -3.17942094	      8.24802897	      0.14395526	     29.75819250	    -11.00846902	      0.00000000	     -0.05669487	     -0.18794153	     -0.54312958	     -0.10528804	     -0.24996223	     -0.57707518	     -0.09314400	     -0.45696104	     -0.57707518	     -0.06479657	     -0.45696104	     -0.47523839	     -0.05264686	     -0.38325037	     -0.44129279	     -0.03239545	     -0.29112143	     -0.40734719	     -0.40496579	     -2.12603217	     -3.02072381	      0.00000000	      0.00000000	     22.36440174	     -5.92857957	      1.14432695	     -2.54596275	    -13.53415407	     37.37244972	     28.30997945	     75.48119416	      0.57007514	     -7.25629873	     14.88542435	     -9.43102896	    187.18996325	      3.27398608	     17.66558283	    -13.42207540	     -9.07596609
      8.67796610	      6.10282097	     -1.56656863	     92.50896693	      0.12924375	      0.95946524	      0.43324869	     -1.58875501	      7.97398751	     -8.76740137	      0.80156058	      0.01398987	     21.80964066	      5.81900757	      0.00000000	     -1.15321340	     -8.48301107	     -4.75023362	      8.13095148	      0.14191187	     30.23117543	     -8.56109108	      0.00000000	     -0.05997672	     -0.19274696	     -0.56406509	     -0.11138276	     -0.25635346	     -0.59931915	     -0.09853575	     -0.46864497	     -0.59931915	     -0.06854739	     -0.46864497	     -0.49355695	     -0.05569438	     -0.39304961	     -0.45830288	     -0.03427070	     -0.29856505	     -0.42304881	     -0.42840768	     -2.18039221	     -3.13716079	      0.00000000	      0.00000000	     22.24378474	     -5.70228905	      1.37016259	     -2.17534044	    -13.58936593	     39.18877389	     28.07339785	     73.60718095	      0.23938371	     -7.94858555	     14.88557125	     -9.63265879	    184.16863195	      3.76162928	     19.98700697	    -13.60531914	     -9.10124090
      8.69491525	      6.03865267	     -1.52891605	     92.15713587	      0.12982244	      0.95958097	      0.43286358	     -1.63810577	      7.90031436	     -8.60717769	      0.86924549	      0.01517120	     22.13592874	      5.97578781	      0.00000000	     -1.33692710	     -8.37035582	     -4.63557651	      8.12169802	      0.14175037	     29.88023517	     -9.40861872	      0.00000000	     -0.05122776	     -0.20449724	     -0.49115104	     -0.09513507	     -0.27198133	     -0.52184797	     -0.08416208	     -0.49721459	     -0.52184797	     -0.05854820	     -0.49721459	     -0.42975716	     -0.04757010	     -0.41701077	     -0.39906022	     -0.02927154	     -0.31676622	     -0.36836328	     -0.36591475	     -2.31331366	     -2.73163471	      0.00000000	      0.00000000	     21.98648265	     -5.55631173	      1.32473357	     -2.06345432	    -13.53984263	     39.94628651	     27.98162285	     72.93515476	     -0.18332684	     -8.58278887	     14.77151753	     -9.85211687	    182.44364714	      3.92670869	     18.36914580	    -11.68412533	     -9.54863298
      8.71186441	      5.95829648	     -1.55660704	     92.08455879	      0.13017512	      0.95963530	      0.43275945	     -1.58061113	      7.82109409	     -9.29297922	      0.94602955	      0.01651133	     22.55371418	      6.69985116	      0.00000000	     -1.35858634	     -8.28302068	     -4.65915402	      8.16346027	      0.14247926	     29.51148672	     -9.84777310	      0.00000000	     -0.03583998	     -0.21999147	     -0.46764743	     -0.06655843	     -0.29258865	     -0.49687540	     -0.05888151	     -0.53488726	     -0.49687540	     -0.04096152	     -0.53488726	     -0.40919151	     -0.03328101	     -0.44860660	     -0.37996354	     -0.02047897	     -0.34076679	     -0.35073558	     -0.25600142	     -2.48858750	     -2.60091474	      0.00000000	      0.00000000	     21.83789671	     -5.35484929	      1.34162509	     -1.71573116	    -13.45212778	     41.26929875	     27.56634605	     71.94095896	     -0.24908073	     -9.36342147	     14.75672455	    -10.08896815	    180.50040653	      4.45865946	     15.88520141	     -9.62678622	    -10.17166542
      8.72881356	      5.93243384	     -1.55913390	     92.04598012	      0.13049902	      0.95968749	      0.43282736	     -1.58922567	      7.82777761	     -7.98738270	      0.91529260	      0.01597487	     22.62828255	      4.69305950	      0.00000000	     -1.42847311	     -8.28007467	     -4.97258853	      8.16834522	      0.14256452	     29.07869609	    -10.06901204	      0.00000000	     -0.02678453	     -0.22965407	     -0.44305464	     -0.04974156	     -0.30543991	     -0.47074555	     -0.04400431	     -0.55838090	     -0.47074555	     -0.03061204	     -0.55838090	     -0.38767281	     -0.02487212	     -0.46831058	     -0.35998189	     -0.01530468	     -0.35573415	     -0.33229098	     -0.19131924	     -2.59789276	     -2.46413698	      0.00000000	      0.00000000	     21.79426306	     -5.20543200	      1.23581514	     -1.07186467	    -13.58301885	     44.34660534	     27.03027325	     69.55999968	     -0.80947414	    -10.65150584	     14.79177806	    -10.33485164	    177.96868074	      5.07482817	     13.26595572	     -7.16716920	    -10.58418713
      8.74576271	      5.94565647	     -1.63726837	     91.92849123	      0.13106873	      0.95966495	      0.43313693	     -1.41140977	      7.83579688	     -9.36555589	      1.08341999	      0.01890925	     23.26186687	      6.37058143	      0.00000000	     -1.29929211	     -8.42668568	     -6.68750617	      8.46673022	      0.14777232	     29.16285194	     -8.54645952	      0.00000000	     -0.00918542	     -0.23490437	     -0.41483633	     -0.01705824	     -0.31242281	     -0.44076360	     -0.01509073	     -0.57114648	     -0.44076360	     -0.01049802	     -0.57114648	     -0.36298179	     -0.00852958	     -0.47901698	     -0.33705452	     -0.00524855	     -0.36386686	     -0.31112725	     -0.06561054	     -2.65728517	     -2.30719524	      0.00000000	      0.00000000	     21.79290362	     -5.11515361	      1.12530444	     -0.56420543	    -13.44297640	     45.92504226	     26.36342443	     68.73404675	     -0.80198004	    -11.09959599	     14.94602471	    -10.68203390	    173.04261505	      6.23918611	     12.37926603	     -5.50928420	    -10.88095480
